<?xml version="1.0" encoding="UTF-8"?>
<svg id="Calque_1" data-name="Calque 1" xmlns="http://www.w3.org/2000/svg" viewBox="0 0 318.4 241.62">
  <defs>
    <style>
      .cls-1 {
        fill: #d89c2f;
      }

      .cls-2 {
        fill: #d39729;
      }

      .cls-3 {
        fill: #fbd26b;
      }

      .cls-4 {
        fill: #efb744;
      }

      .cls-5 {
        fill: #eeb646;
      }

      .cls-6 {
        fill: #ebb03d;
      }
    </style>
  </defs>
  <path class="cls-4" d="M164.43,28.6c5.6,17.91,12.74,35.34,19,53,3.52,9.94,5.53,22.58,10.48,32.02,2.29,4.37,7.69,5.67,11.6,2.56,2.49-1.98,11.81-16.54,14.6-20.45.78-1.1.93-2.57,1.32-3.13,4.75-6.77,10.32-13.16,15-20,7.93-2.15,3.68,6.02,10,7-.26,10.32-.84,20.72-1,31-.22,14.32-1.12,36.98,18.03,19.49.78-.71.79-2.32.97-2.49.24-.22,1.91-.38,3.02-1.43,3.8-3.58,29.21-28.51,28.85-30.88-.64-4.21-6.24-4.84-2.92-14.23,5.24-14.83,29.24-8.53,24.37,8.38-2.75,9.52-11.85,7.49-14.24,10.75l-17.08,53.42c-15.92.56-23.51,25.67-14,37-.53.74-5.01,14.35-6,17-18.77-2.38-37.6-5.65-56.51-6.99-37.04-2.63-77.02-2.54-113.98.99-14.89,1.42-29.62,4.6-44.5,6-1.04-2.94-5.2-17.02-6-18,7.17-2.45,5.43-14.56,3.72-20.22-2.99-9.91-7.41-12.42-15.72-16.78-.37-.19-1.73.55-2.02-.67l-14.98-48.33c2.58-4.62-1.67-6.99,6-6,11.05,9.93,20.99,21.02,32,31,4.11,3.72,9.34,11.15,15.97,5.47,2.79-2.39,3.12-15.91,3.07-20.05-.02-1.29-1.04-2.29-1.04-2.42-.11-12.65.08-25.35,0-38,.84.02,8.4-1.64,9-2,4.58,5.97,8.79,12.25,13.14,18.41,1.04,1.47,2.77,1.46,2.86,1.59.16.22.02,2.25.93,3.52,3.04,4.24,13.74,21.75,17.61,22.47,2.91.54,6.53.03,8.24-2.71,4.41-7.04,8.22-24.68,11.21-33.29,6.13-17.6,13.09-34.98,18-53,.66.21,10.34.21,11,0ZM157.19,130.79c-13.94,1.91-17.74,24.47-14.22,35.76,9.14,29.28,34.47,14.49,33.5-11.48-.36-9.8-7.14-25.94-19.28-24.28Z"/>
  <path class="cls-5" d="M268.43,225.6c.48.73,1.96,1.04,2.55,2.92,1.66,5.25-1.52,12.01-7.14,13.07-68.56-10.93-139.41-11.33-207.94.03-9.69-2.58-11.63-9.49-5.47-17.02,1.84,1.29,6.19.25,8.45-.05,49.51-6.55,99.02-9.39,149.04-5.94,20.26,1.4,40.33,4.99,60.51,6.99Z"/>
  <path class="cls-1" d="M266.43,207.6c-.48,1.28.12,4.3-1.14,5.86-12.78-.54-25.57-3.57-38.37-4.86-43.35-4.37-90.57-4.41-133.99,0-13,1.32-26.09,3.5-38.9,6.06-1.08-.17-2.12-5.67-2.61-7.07,14.88-1.39,29.62-4.57,44.5-6,36.96-3.53,76.95-3.62,113.98-.99,18.91,1.34,37.74,4.6,56.51,6.99Z"/>
  <path class="cls-1" d="M268.43,225.6c-20.17-2.01-40.25-5.59-60.51-6.99-50.02-3.45-99.53-.61-149.04,5.94-2.26.3-6.61,1.33-8.45.05,1.78-2.18,2.64-3.93,5.72-4.78,9.45-2.59,27.49-4.18,37.79-5.21,50.52-5.08,118.23-5.15,167.92,5.06,4.92,1.01,4.54,2.83,6.57,5.93Z"/>
  <path class="cls-2" d="M221.43,92.6c-.39.56-.54,2.03-1.32,3.13-2.78,3.91-12.1,18.47-14.6,20.45-3.91,3.11-9.3,1.81-11.6-2.56-4.95-9.44-6.96-22.08-10.48-32.02,12.93.58,26.74,4.86,38,11Z"/>
  <path class="cls-2" d="M135.43,81.6c-3,8.61-6.8,26.25-11.21,33.29-1.71,2.74-5.34,3.25-8.24,2.71-3.87-.72-14.57-18.23-17.61-22.47-.91-1.27-.77-3.3-.93-3.52,12.3-4.05,24.91-9.66,38-10Z"/>
  <path class="cls-1" d="M164.43,28.6c-.66.21-10.34.21-11,0-.39-.12-5.22-4.74-5.84-5.66-4.55-6.7-3.73-14.88,2.82-19.86,12.71-9.66,28.42,5.35,20.89,18.89-.54.97-6.41,6.49-6.86,6.64Z"/>
  <path class="cls-6" d="M236.43,72.6c-.2-4.2-3.48-4.89-4.02-9.48-.68-5.73.82-12.09,6.62-14.42,15.7-6.32,25.46,12.63,13.94,21.94-6.08,4.91-6.3-.42-6.54,8.96-6.32-.98-2.07-9.15-10-7Z"/>
  <path class="cls-6" d="M22.43,97.6c-7.67-.99-3.42,1.38-6,6-2.92-7.91-4.16-3.43-9.92-6.58-16.99-9.3,3.12-36.11,16.77-19.77,6.23,7.46,1.64,12.84-.85,20.35Z"/>
  <path class="cls-6" d="M81.43,71.6c-.6.36-8.16,2.02-9,2-5.44-.15-11.54-5.87-12.04-11.5-1.82-20.23,30.15-19.07,25.81,1.77-.33,1.57-3.64,7.06-4.77,7.73Z"/>
  <path class="cls-4" d="M287.43,156.6c.45,1.95,1.99,3.58,1.99,6.5,0,6.42-4.4,19.32-9.43,23.56-2.36,1.99-3.65,1.39-4.56,1.94-9.7-7.85-.16-31.86,12-32Z"/>
  <path class="cls-5" d="M43.43,188.6c-6.7-4.08-8.9-5.56-11.78-13.72-2.63-7.45-2.91-10.37-.22-17.28,12.7-1,19.37,22.36,12,31Z"/>
  <path class="cls-2" d="M264.43,127.6c-.19.17-.19,1.78-.97,2.49-19.15,17.49-18.25-5.17-18.03-19.49,7.36,4.31,13.54,10.53,19,17Z"/>
  <path class="cls-2" d="M72.43,111.6c0,.13,1.02,1.13,1.04,2.42.05,4.14-.28,17.66-3.07,20.05-6.63,5.68-11.86-1.74-15.97-5.47,4.19-6.44,10.84-13.85,18-17Z"/>
  <path class="cls-1" d="M45.43,189.6c-.07-.09-1.35-.6-2-1,7.37-8.64.7-32-12-31,.64-1.65.87-3.51,2-5,8.31,4.36,12.73,6.87,15.72,16.78,1.71,5.66,3.45,17.77-3.72,20.22Z"/>
  <path class="cls-1" d="M286.43,153.6c.53.94.76,1.96,1,3-12.16.14-21.7,24.15-12,32-.38.23-2.89,1.85-3,2-9.51-11.33-1.92-36.44,14-37Z"/>
  <path class="cls-3" d="M157.19,130.79c12.14-1.66,18.91,14.48,19.28,24.28.97,25.97-24.36,40.76-33.5,11.48-3.52-11.29.28-33.85,14.22-35.76ZM157.18,136.78c-16.79,3.22-13.5,40.41,1.73,40.7,18.29.36,16.93-44.29-1.73-40.7Z"/>
  <path class="cls-1" d="M157.18,136.78c18.66-3.58,20.02,41.06,1.73,40.7-15.23-.3-18.51-37.48-1.73-40.7ZM157.16,140.77c-9.92,2.03-11.7,27.09-1.14,31.73,16.79,7.36,16.96-34.96,1.14-31.73Z"/>
  <path class="cls-4" d="M157.16,140.77c15.82-3.24,15.66,39.09-1.14,31.73-10.56-4.63-8.78-29.69,1.14-31.73Z"/>
</svg>