<?xml version="1.0" encoding="UTF-8"?>
<svg id="Calque_1" data-name="Calque 1" xmlns="http://www.w3.org/2000/svg" viewBox="0 0 267.94 254.06">
  <defs>
    <style>
      .cls-1 {
        fill: #9fa7ab;
      }

      .cls-2 {
        fill: #bcc1c3;
      }

      .cls-3 {
        fill: #a5acae;
      }

      .cls-4 {
        fill: #d5d6d6;
      }
    </style>
  </defs>
  <path class="cls-4" d="M109.84,142.98c.07.17,1.63.92,2.2,2.25,7.02,16.28,13.45,32.88,21.31,48.76,2.01.04,2.62-2.22,3.36-3.64,7.22-13.74,13.78-31.78,20.13-46.37.74.12,4.8,2.79,5,3,.25.26.29,2.04,1.41,3.05,12.16,10.92,27.17,6.28,40.59.95,5.79-2.3,10.99-5.67,17-7,1.88,23.31,4.14,46.63,5,70-55.68-6.43-129.1-9.44-184,1,.62-23.76,4.04-47.37,6-71,4.92.81,9.54,4.73,14,6.53,1.08.44,2.32.21,3,.47,10.8,4.06,24.54,8.69,35.34,1.84,2.59-1.64,3.76-3.91,5.66-5.84.13-.13,1.27.24,1.73-.24.9-.94.78-3.01,2.27-3.76Z"/>
  <path class="cls-3" d="M156.84,143.98c-6.34,14.6-12.91,32.64-20.13,46.37-.75,1.42-1.35,3.68-3.36,3.64-7.86-15.88-14.29-32.48-21.31-48.76-.58-1.34-2.13-2.08-2.2-2.25-4.47-10.44-14.45-31.63-17.04-41.45-.52-1.97-1.4-3.79-.91-5.93L131.63,2.27c1.93-4.15,3.73-1.88,5.4,1.01l39.62,92.46c.41,3.44-2.06,7.87-3.35,11.2-4.71,12.21-11.19,24.89-16.47,37.03Z"/>
  <path class="cls-4" d="M235.84,236.98c9.02,1.39,9.33,17.07-2.49,17.08-66.08-11.59-133.79-9.44-200.02-.05-8.74-.3-10.7-13.71-2.49-16.03,11.46-3.24,32.12-4.9,44.51-5.99,52.58-4.64,108.45-3.02,160.49,4.99Z"/>
  <path class="cls-3" d="M235.84,236.98c-52.04-8.01-107.92-9.64-160.49-4.99-12.39,1.09-33.04,2.75-44.51,5.99l8.7-10.8c57.31-7.22,117.19-9.12,174.68-2.07,2.95.36,13.94,1.45,15.61,2.39,1.36.76,4.78,7.67,6.01,9.49Z"/>
  <path class="cls-2" d="M47.84,141.98c-.05.66.05,1.34,0,2-1.96,23.63-5.38,47.24-6,71-1.67.32-3.39.38-5,1-10.5-34.76-19.57-69.93-29-105,1.98-.02,2.77,1.35,4.02,2.48,11.33,10.28,21.05,22.65,35.98,28.52Z"/>
  <path class="cls-2" d="M259.84,111.98c-9.38,34.29-18.22,68.82-28,103-2.23.98-4.77-.86-6-1-.86-23.37-3.12-46.69-5-70-.05-.66.05-1.34,0-2,13.65-6.45,24.06-17.48,34.98-27.52,1.23-1.13,2.06-2.5,4.02-2.48Z"/>
  <path class="cls-3" d="M47.84,141.98c-14.94-5.87-24.66-18.23-35.98-28.52-1.24-1.13-2.04-2.5-4.02-2.48C5.88,103.7.62,90.94.03,84.2c-.3-3.42,1.92-3.94,4.53-2.44l44.21,23.79,1.94,3.88c-1.67,10.77-1.98,21.7-2.86,32.55Z"/>
  <path class="cls-3" d="M220.84,141.98c-.72-8.99-2.72-18.49-3.04-27.45-.12-3.43-.76-7.46,2.53-9.56l42.56-22.43,4.94-.55c1.14,1.09-7.01,26.38-8,29.99-1.96-.02-2.78,1.35-4.02,2.48-10.92,10.04-21.33,21.07-34.98,27.52Z"/>
  <path class="cls-1" d="M161.84,146.98l25.18-44.32c.51-1.11,2.66-3.55,3.81-2.68,2.09,1.6,10.96,44.9,13.01,51-13.42,5.33-28.44,9.97-40.59-.95-1.12-1.01-1.16-2.79-1.41-3.05Z"/>
  <path class="cls-1" d="M64.84,150.98l12.5-51.01c2.61-.83,4.62,4.14,5.92,6.1,8.41,12.71,15.24,27.53,22.58,40.92-1.91,1.93-3.07,4.19-5.66,5.84-10.79,6.85-24.54,2.22-35.34-1.84Z"/>
  <path class="cls-3" d="M225.84,213.98c1.23.14,3.77,1.98,6,1-.39,1.37-.89,5.94-1.58,6.06-63.86-7.31-128.75-8.63-192.41.95.05-2.06-.42-4.06-1.01-6,1.61-.62,3.33-.68,5-1,54.9-10.44,128.32-7.43,184-1Z"/>
</svg>