<svg width="24" height="22" viewBox="0 0 24 22" fill="none" xmlns="http://www.w3.org/2000/svg">
<path fill-rule="evenodd" clip-rule="evenodd" d="M12.3198 0.013594C13.1815 0.013594 14.0079 0.341626 14.6173 0.925527C15.2266 1.50943 15.5689 2.30137 15.5689 3.12713C15.5689 3.95289 15.2266 4.74483 14.6173 5.32873C14.0079 5.91263 13.1815 6.24066 12.3198 6.24066C11.4581 6.24066 10.6317 5.91263 10.0224 5.32873C9.41311 4.74483 9.0708 3.95289 9.0708 3.12713C9.0708 2.30137 9.41311 1.50943 10.0224 0.925527C10.6317 0.341626 11.4581 0.013594 12.3198 0.013594ZM7.29177 8.87792L8.11979 9.27562L5.32675 14.9248C5.22375 15.1232 4.91274 15.3216 4.70674 15.2219L1.9067 14.5281C1.07969 14.3297 0.25168 14.8252 0.0456769 15.6186C-0.161326 16.4112 0.355682 17.2046 1.18269 17.403L3.98273 18.0968C4.29273 18.1955 4.60274 18.1955 4.91274 18.1955C6.46476 18.1955 7.80878 17.3043 8.32579 15.9157L8.53279 15.3216L11.0158 16.9076C11.0694 16.9107 11.1199 16.9326 11.1578 16.9689C11.1957 17.0053 11.2185 17.0537 11.2218 17.105L12.6698 21.1069C12.9799 21.701 13.4979 21.999 14.1179 21.999C14.3249 21.999 14.5319 21.999 14.7379 21.9003C15.5659 21.5036 15.8769 20.7111 15.5659 19.9176L14.1179 15.9157C13.8079 15.3216 13.3939 14.8261 12.7738 14.4294L9.77381 12.5463L10.9118 10.5636L12.3598 11.2574C13.7049 11.8515 15.3599 11.6541 16.4969 10.5636L18.4039 8.71788C19.0239 8.12373 19.0239 7.23059 18.4039 6.63644C17.7839 6.04229 16.8529 6.04229 16.2319 6.63644L14.3249 8.48214C14.1179 8.68051 13.9119 8.68051 13.7049 8.5818L10.9118 7.19418L8.63679 6.10363C7.70578 5.70689 6.77477 5.60818 5.84376 5.90526C4.91374 6.20233 4.18873 6.89614 3.77573 7.68962L2.32771 10.3221C2.0177 11.0159 2.32771 11.9081 3.05172 12.3048C3.82473 12.6747 4.66474 12.4371 5.11975 11.7097L6.56777 9.07725C6.77477 8.87888 7.08477 8.77922 7.29177 8.87792ZM16.1459 16.9076L15.6959 16.6201L15.2989 15.5247C15.2815 15.4762 15.2605 15.4283 15.2359 15.381C14.8439 14.6287 14.2949 13.9627 13.4669 13.4337L13.4589 13.428L11.7328 12.3451L11.7528 12.3067L11.8008 12.3297L11.8208 12.3393L11.8358 12.346C12.8491 12.7946 13.9903 12.9033 15.0759 12.6546L17.9039 14.4303C18.5249 14.8271 18.9389 15.3216 19.2489 15.9167L20.697 19.9186C21.007 20.712 20.697 21.5046 19.8699 21.9013C19.6629 22 19.4559 22 19.2489 22C18.6289 22 18.1109 21.7029 17.8009 21.1088L16.3529 17.1059C16.3529 17.0072 16.2499 16.9076 16.1459 16.9076ZM21.363 6.63644L20.1129 7.84583C20.0719 8.46585 19.7969 9.07533 19.2899 9.56215L17.5239 11.2718C18.8629 11.8487 20.5 11.6455 21.628 10.5636L23.535 8.71788C24.155 8.12373 24.155 7.23059 23.535 6.63644C22.914 6.04229 21.983 6.04229 21.363 6.63644ZM15.8289 0.42854C16.4711 1.19317 16.8205 2.1456 16.8189 3.12713C16.8189 3.87557 16.6199 4.57992 16.2689 5.19419C17.2509 4.80129 18.3989 4.98145 19.2289 5.73372C19.9447 5.29345 20.4517 4.60178 20.6412 3.80723C20.8307 3.01269 20.6875 2.17861 20.2424 1.4841C19.7973 0.789592 19.0858 0.290026 18.2606 0.092668C17.4354 -0.10469 16.5623 0.0158987 15.8289 0.42854Z" fill="black"/>
</svg>
