<svg width="21" height="21" viewBox="0 0 21 21" fill="none" xmlns="http://www.w3.org/2000/svg">
<g clip-path="url(#clip0_506_4552)">
<path d="M17.6505 5.90601H16.0222L12.0269 9.89951C12.1645 10.2502 12.1772 10.6376 12.0628 10.9965C11.9483 11.3554 11.7138 11.664 11.3986 11.8704C11.0834 12.0767 10.7068 12.1682 10.3321 12.1295C9.95736 12.0909 9.60737 11.9243 9.34099 11.6579C9.07461 11.3916 8.90807 11.0416 8.86939 10.6668C8.8307 10.2921 8.92223 9.91549 9.12857 9.6003C9.33492 9.28512 9.6435 9.0506 10.0024 8.93617C10.3613 8.82175 10.7487 8.8344 11.0994 8.97201L15.0938 4.97763V3.34926C15.0939 3.13136 15.1804 2.92241 15.3344 2.76826L16.8482 1.25451C16.8762 1.22631 16.9113 1.20629 16.9499 1.19657C16.9884 1.18686 17.0289 1.18783 17.0669 1.19938C17.1448 1.22213 17.2025 1.28688 17.2183 1.36651L17.6208 3.37988L19.6333 3.78238C19.712 3.79813 19.7768 3.85588 19.7995 3.93376C19.811 3.97159 19.8121 4.01182 19.8025 4.05019C19.793 4.08855 19.7732 4.12361 19.7453 4.15163L18.2307 5.66538C18.0767 5.81917 17.8681 5.90569 17.6505 5.90601Z" fill="black"/>
<path d="M2.29688 10.5C2.29688 12.6756 3.16113 14.7621 4.69951 16.3005C6.2379 17.8389 8.3244 18.7031 10.5 18.7031C11.5772 18.7031 12.644 18.4909 13.6392 18.0787C14.6344 17.6665 15.5388 17.0622 16.3005 16.3005C17.0622 15.5388 17.6665 14.6345 18.0787 13.6392C18.4909 12.644 18.7031 11.5773 18.7031 10.5C18.7031 9.71425 18.5929 8.95475 18.3872 8.23638C18.3464 8.07143 18.3711 7.89706 18.4562 7.74996C18.5412 7.60286 18.6801 7.4945 18.8434 7.44768C19.0068 7.40086 19.1819 7.41924 19.332 7.49894C19.4821 7.57864 19.5954 7.71345 19.6481 7.875C19.8879 8.70975 20.0156 9.59 20.0156 10.5C20.0156 15.7553 15.7552 20.0156 10.5 20.0156C5.24475 20.0156 0.984375 15.7553 0.984375 10.5C0.984375 5.24475 5.24475 0.98438 10.5 0.98438C11.3881 0.983505 12.271 1.10688 13.125 1.351C13.2083 1.37436 13.2861 1.41395 13.354 1.46748C13.4219 1.52102 13.4786 1.58746 13.5208 1.66297C13.5629 1.73848 13.5897 1.82157 13.5997 1.90748C13.6096 1.99339 13.6025 2.08042 13.5786 2.16356C13.5548 2.24669 13.5148 2.32431 13.4609 2.39193C13.407 2.45956 13.3403 2.51586 13.2645 2.5576C13.1888 2.59935 13.1055 2.62571 13.0196 2.63517C12.9336 2.64464 12.8466 2.63702 12.7636 2.61275C12.0275 2.40263 11.2656 2.29631 10.5 2.29688C8.3244 2.29688 6.2379 3.16113 4.69951 4.69952C3.16113 6.2379 2.29688 8.3244 2.29688 10.5Z" fill="black"/>
<path d="M6.23439 10.5001C6.23684 11.0796 6.35737 11.6525 6.58863 12.1839C6.8199 12.7153 7.15705 13.194 7.57949 13.5908C8.00193 13.9875 8.5008 14.294 9.04564 14.4915C9.59048 14.689 10.1699 14.7734 10.7484 14.7395C11.327 14.7057 11.8925 14.5542 12.4106 14.2945C12.9287 14.0347 13.3884 13.6721 13.7616 13.2288C14.1348 12.7854 14.4138 12.2707 14.5815 11.7159C14.7491 11.1612 14.802 10.578 14.7368 10.0022C14.7184 9.88556 14.7319 9.76614 14.7759 9.65656C14.8199 9.54699 14.8926 9.45136 14.9865 9.37979C15.0804 9.30822 15.192 9.26338 15.3093 9.25003C15.4266 9.23668 15.5453 9.2553 15.6529 9.30394C15.8725 9.40194 16.0204 9.61106 16.0396 9.85081C16.1755 11.0017 15.9495 12.1662 15.3929 13.1827C14.8364 14.1991 13.977 15.0169 12.9342 15.5224C11.8915 16.0279 10.7171 16.196 9.57443 16.0033C8.43174 15.8106 7.37746 15.2667 6.55814 14.4472C5.73905 13.6286 5.195 12.5753 5.00145 11.4336C4.8079 10.2918 4.97444 9.11814 5.47798 8.0753C5.98151 7.03246 6.79708 6.17215 7.81157 5.6137C8.82606 5.05525 9.98919 4.82633 11.1396 4.95869C11.2266 4.96676 11.3111 4.99211 11.3881 5.03325C11.4652 5.07439 11.5332 5.1305 11.5883 5.19829C11.6434 5.26608 11.6844 5.34418 11.7089 5.42802C11.7334 5.51185 11.7409 5.59974 11.731 5.68652C11.7211 5.7733 11.694 5.85723 11.6512 5.9334C11.6085 6.00956 11.551 6.07642 11.482 6.13006C11.4131 6.1837 11.3341 6.22303 11.2498 6.24577C11.1655 6.2685 11.0774 6.27416 10.9909 6.26244C10.3933 6.19335 9.78784 6.25141 9.21426 6.43283C8.64069 6.61425 8.11196 6.91491 7.66279 7.31509C7.21361 7.71526 6.85414 8.20591 6.60797 8.75481C6.36179 9.30372 6.23448 9.89848 6.23439 10.5001Z" fill="black"/>
</g>
<defs>
<clipPath id="clip0_506_4552">
<rect width="21" height="21" fill="white"/>
</clipPath>
</defs>
</svg>
