<svg width="108" height="83" viewBox="0 0 108 83" fill="none" xmlns="http://www.w3.org/2000/svg">
<path d="M0.0155003 81.9811C-0.707149 81.5039 23.9805 42.5327 44.3426 35.8975C47.1744 34.9743 52.4785 33.2454 58.4982 35.1748C64.0789 36.9624 67.4501 40.9871 68.9265 43.0168C69.3 43.8224 70.4237 46.4813 69.2377 48.6596C68.9092 49.2613 67.7682 51.0005 62.5852 51.571C59.4249 51.9202 53.3083 51.9928 45.3903 48.1445C59.1172 48.3692 62.5472 47.0069 62.8238 45.5823C63.1557 43.8708 59.048 41.4954 56.1125 40.5514C51.0366 38.9229 46.3861 40.5826 43.7894 41.5127C40.4977 42.6883 38.2226 44.2269 37.4688 44.756C26.2902 52.5772 0.0397038 82.8351 0.267909 82.0675L0.0155003 81.9811Z" fill="#2A2A2A"/>
<path d="M61.043 34.6284C61.043 34.6284 70.4616 36.6892 73.8536 33.2765C77.2628 29.85 74.9185 23.474 74.7906 23.1179C74.7353 22.9658 74.6869 22.8378 74.6488 22.7445C75.1433 22.3745 75.9282 21.8801 76.9897 21.6173C79.41 21.0191 81.533 22.0599 83.3863 22.7583C83.3863 22.7583 87.3938 24.2624 92.1411 24.5148C100.07 24.9401 107.704 19.5669 107.704 19.5669C106.2 20.7909 104.025 22.3676 101.19 23.8164C99.5059 24.6773 98.0191 25.438 96.0725 25.9601C89.4026 27.7512 82.2038 25.438 82.2038 25.438C82.0275 25.3343 81.4708 25.0404 80.8519 25.2167C80.1292 25.4207 79.8077 26.1295 79.6624 26.4614C79.1818 27.5333 79.5795 28.1799 79.4792 29.4765C79.4792 29.4765 79.3893 30.9875 78.518 32.3326C77.4253 34.0233 75.5824 34.7633 74.5278 35.1851C73.5873 35.562 72.3668 35.9147 70.6138 36.0599C66.7135 36.3849 63.2593 35.441 61.043 34.625V34.6284Z" fill="#2A2A2A"/>
<path d="M73.0273 19.5703C78.4296 19.5703 82.809 15.1894 82.809 9.78516C82.809 4.38096 78.4296 0 73.0273 0C67.625 0 63.2456 4.38096 63.2456 9.78516C63.2456 15.1894 67.625 19.5703 73.0273 19.5703Z" fill="#2A2A2A"/>
<path d="M7.9611 46.0076C7.9611 46.0076 7.99222 46.0076 8.051 46.0179C11.1041 46.3533 13.3205 45.8485 13.3205 45.8485C13.8633 45.7448 14.7969 45.5373 16.0797 45.0533C20.298 43.4627 23.6761 40.6482 23.9043 40.4546C29.2844 35.9009 32.4413 32.4605 35.4356 29.8534C37.8491 27.7512 43.613 22.4402 52.302 20.5316C59.774 18.8892 66.4369 20.6699 70.638 22.3123C71.288 22.5647 71.7652 23.1283 71.9104 23.8094C72.8889 28.3701 72.0176 30.4723 70.9492 31.5442C67.4362 35.0745 57.039 32.2357 57.039 32.2357C55.6525 31.9315 53.6851 31.6134 51.3132 31.6203C49.7641 31.6237 46.6868 31.769 42.7866 33.0517C36.3934 35.1505 35.484 37.7784 25.3704 43.4351C21.1693 45.7828 19.6825 46.1977 18.2718 46.4986C12.6428 47.6984 7.95764 46.0145 7.95764 46.0076H7.9611Z" fill="#2A2A2A"/>
</svg>
