<?xml version="1.0" encoding="UTF-8"?>
<svg id="Calque_1" data-name="Calque 1" xmlns="http://www.w3.org/2000/svg" viewBox="0 0 58 58">
  <defs>
    <style>
      .cls-1 {
        fill: #c6d300;
      }

      .cls-2 {
        fill: #24211e;
      }

      .cls-3 {
        fill: none;
        stroke: #205341;
      }

      .cls-4 {
        fill: #fff;
      }

      .cls-5 {
        fill: #f5f1ec;
      }
    </style>
  </defs>
  <path class="cls-5" d="M51.72,16.08C33.47-12.22,11.22,3.06,3.87,14.85c-1.01,1.73-6.48,7.8-2.33,27.97,3.5,16.99,17.49,16.39,27.37,13.8,15.21-1.73,41.06-12.25,22.81-40.55Z"/>
  <path class="cls-4" d="M47.81,18.31C32.7-5.11,14.28,7.54,8.2,17.29c-.84,1.43-5.37,6.45-1.93,23.15,2.89,14.06,14.47,13.57,22.65,11.42,12.59-1.43,33.98-10.14,18.88-33.56Z"/>
  <g>
    <path class="cls-2" d="M16,37.2c0-1.77,1.43-3.2,3.2-3.2h19.6c1.77,0,3.2,1.43,3.2,3.2v9.6c0,1.77-1.43,3.2-3.2,3.2h-19.6c-1.77,0-3.2-1.43-3.2-3.2v-9.6Z"/>
    <path class="cls-4" d="M21.78,45.1c-.51,0-.9-.14-1.17-.43-.27-.29-.4-.71-.4-1.26v-.53h1v.6c0,.44.18.65.55.65s.55-.22.55-.65v-1.51c0-.44-.18-.66-.55-.66s-.55.22-.55.66v.06h-1l.19-3.75h2.78v.96h-1.84l-.09,1.6h.02c.2-.33.5-.49.91-.49.38,0,.68.13.87.39.2.26.3.64.3,1.14v1.52c0,.54-.13.96-.4,1.26-.27.29-.66.43-1.17.43ZM25.61,38.28h1.56c.52,0,.92.14,1.18.42.26.28.39.69.39,1.24v.66c0,.54-.13.96-.39,1.24-.26.28-.66.42-1.18.42h-.5v2.74h-1.06v-6.72ZM27.17,41.3c.17,0,.3-.05.38-.14.09-.1.13-.26.13-.49v-.8c0-.23-.04-.39-.13-.49-.08-.1-.21-.14-.38-.14h-.5v2.06h.5ZM29.79,38.28h1.43l1.09,6.72h-1.06l-.19-1.33v.02h-1.2l-.19,1.32h-.98l1.09-6.72ZM30.94,42.77l-.47-3.32h-.02l-.46,3.32h.95ZM32.83,38.28h1.56c.54,0,.94.13,1.19.38.25.25.37.64.37,1.16v.41c0,.7-.23,1.14-.69,1.32v.02c.26.08.44.23.54.47.11.24.16.55.16.95v1.18c0,.19,0,.35.02.47.01.12.04.23.1.35h-1.08c-.04-.11-.06-.21-.08-.31-.01-.1-.02-.27-.02-.52v-1.23c0-.31-.05-.52-.15-.64-.1-.12-.27-.18-.51-.18h-.36v2.88h-1.06v-6.72ZM34.27,41.16c.21,0,.37-.05.47-.16.11-.11.16-.29.16-.55v-.52c0-.24-.04-.42-.13-.53-.08-.11-.22-.16-.4-.16h-.48v1.92h.38ZM36.75,43.98h1.02v1.02h-1.02v-1.02Z"/>
  </g>
  <path class="cls-1" d="M21.96,18.55c.92-1.85,3.14-5.55,4.62-5.55,1.85,0,1.85,1.71,1.85,2.56s.46.85,1.85.43c1.39-.43,2.31-1.28,2.77,1.28.17.93.28,1.65.35,2.2.1.77.47,1.5,1.05,2,1.29,1.12,2.93,2.68,3.22,3.49.12.33.18.69.2,1.04.07,1.19-.62,2.38-1.74,2.81-1.35.52-3.19.72-4.93-.43-3.23-2.14-10.32-7.89-9.24-9.82Z"/>
  <path class="cls-1" d="M27.85,25.81l8.32-2.56,1.39,1.28c.92.85.46,2.56-1.85,4.27-1.85,1.37-6.93-1.71-7.85-2.99Z"/>
  <path class="cls-4" d="M30.57,28.24c-3.03-1.32-8.48-8.05-9.17-9.6l2.3.34,9.7,7.26c.14.23,1.15,1.05,1.85,2.14.87,1.36-.89,1.51-4.68-.14Z"/>
  <path class="cls-3" d="M21.96,18.55c.92-1.85,3.14-5.55,4.62-5.55,1.85,0,1.85,1.71,1.85,2.56s.46.85,1.85.43c1.39-.43,2.31-1.28,2.77,1.28.17.93.28,1.65.35,2.2.1.77.47,1.5,1.05,2,1.29,1.12,2.93,2.68,3.22,3.49.12.33.18.69.2,1.04.07,1.19-.62,2.38-1.74,2.81M21.96,18.55c-1.08,1.94,6.01,7.69,9.24,9.82,1.74,1.15,3.58.95,4.93.43M21.96,18.55c3.33.68,9.59,6.41,14.17,10.25"/>
  <path class="cls-1" d="M14,19l1.08,2.92,2.92,1.08-2.92,1.08-1.08,2.92-1.08-2.92-2.92-1.08,2.92-1.08,1.08-2.92Z"/>
  <path class="cls-1" d="M44,28l.54,1.46,1.46.54-1.46.54-.54,1.46-.54-1.46-1.46-.54,1.46-.54.54-1.46Z"/>
</svg>