<?xml version="1.0" encoding="UTF-8"?>
<svg id="Calque_1" data-name="Calque 1" xmlns="http://www.w3.org/2000/svg" viewBox="0 0 58 58">
  <defs>
    <style>
      .cls-1 {
        fill: #c6d300;
      }

      .cls-2 {
        fill: #24211e;
      }

      .cls-3 {
        fill: #424242;
      }

      .cls-4 {
        fill: #fff;
      }

      .cls-5 {
        fill: #205341;
      }

      .cls-6 {
        fill: #f5f1ec;
      }
    </style>
  </defs>
  <path class="cls-6" d="M51.72,16.08C33.47-12.22,11.22,3.06,3.87,14.85c-1.01,1.73-6.48,7.8-2.33,27.97,3.5,16.99,17.49,16.39,27.37,13.8,15.21-1.73,41.06-12.25,22.81-40.55Z"/>
  <path class="cls-4" d="M47.81,18.31C32.7-5.11,14.28,7.54,8.2,17.29c-.84,1.43-5.37,6.45-1.93,23.15,2.89,14.06,14.47,13.57,22.65,11.42,12.59-1.43,33.98-10.14,18.88-33.56Z"/>
  <g>
    <path class="cls-2" d="M16,37.2c0-1.77,1.43-3.2,3.2-3.2h19.6c1.77,0,3.2,1.43,3.2,3.2v9.6c0,1.77-1.43,3.2-3.2,3.2h-19.6c-1.77,0-3.2-1.43-3.2-3.2v-9.6Z"/>
    <path class="cls-4" d="M20.72,45.1c-.51,0-.9-.14-1.16-.43-.26-.29-.39-.71-.39-1.26v-.38h1v.46c0,.44.18.65.55.65.18,0,.31-.05.4-.15.1-.11.14-.28.14-.52,0-.28-.06-.53-.19-.74-.13-.22-.36-.48-.71-.78-.44-.38-.74-.73-.91-1.04-.17-.31-.26-.67-.26-1.06,0-.53.13-.94.4-1.23.27-.29.66-.44,1.17-.44s.89.15,1.14.44c.26.29.39.7.39,1.25v.28h-1v-.35c0-.23-.04-.4-.13-.5-.09-.11-.22-.16-.39-.16-.35,0-.53.21-.53.64,0,.24.06.47.19.68.13.21.37.47.72.77.44.38.75.73.91,1.05.17.31.25.68.25,1.1,0,.55-.14.97-.41,1.27-.27.29-.66.44-1.18.44ZM24.45,45.1c-.52,0-.92-.15-1.19-.44s-.41-.71-.41-1.25v-3.53c0-.54.14-.95.41-1.25s.67-.44,1.19-.44.92.15,1.19.44c.28.29.41.71.41,1.25v3.53c0,.54-.14.95-.41,1.25-.28.29-.67.44-1.19.44ZM24.45,44.14c.36,0,.55-.22.55-.66v-3.67c0-.44-.18-.66-.55-.66s-.55.22-.55.66v3.67c0,.44.18.66.55.66ZM28.25,45.1c-.51,0-.89-.14-1.16-.43-.26-.29-.39-.69-.39-1.22v-3.61c0-.52.13-.93.39-1.22.27-.29.66-.43,1.16-.43s.89.14,1.15.43c.27.29.4.69.4,1.22v.71h-1v-.78c0-.42-.18-.62-.53-.62s-.53.21-.53.62v3.75c0,.41.18.61.53.61s.53-.2.53-.61v-1.03h1v.95c0,.52-.13.93-.4,1.22-.26.29-.65.43-1.15.43ZM30.44,38.28h1.06v6.72h-1.06v-6.72ZM33.1,38.28h1.43l1.09,6.72h-1.06l-.19-1.33v.02h-1.2l-.19,1.32h-.98l1.09-6.72ZM34.25,42.77l-.47-3.32h-.02l-.46,3.32h.95ZM36.14,38.28h1.06v5.76h1.74v.96h-2.79v-6.72Z"/>
  </g>
  <path class="cls-1" d="M14,14.22l1.08,2.92,2.92,1.08-2.92,1.08-1.08,2.92-1.08-2.92-2.92-1.08,2.92-1.08,1.08-2.92Z"/>
  <path class="cls-1" d="M44,28l.54,1.46,1.46.54-1.46.54-.54,1.46-.54-1.46-1.46-.54,1.46-.54.54-1.46Z"/>
  <g>
    <path class="cls-5" d="M31.54,17c.06.04.13,0,.2-.03.5-.24,1.13-1.05,1.68-1.34.44-.23.8-.27,1.25-.01.8.45.96,1.46.3,2.1-.54.53-1.66,1.33-2.3,1.81-.5.37-.88.78-1.57.68s-1.15-1.09-1.58-1.57c-.08.04-.72,1.4-.8,1.6s-.25.48-.16.66l2.09,2.16c.1.14.18.32.2.49.05.4-.04,1.13-.06,1.57-.07,1.16-.14,2.93-.36,4.02-.29,1.48-2.66,1.35-2.85-.06-.15-1.1.22-2.8.27-3.97,0-.2.01-.4-.01-.6l-1.87-1.83c-.09-.02-.11.05-.16.11-.63.86-1.2,2.3-1.87,3.06-.16.18-.38.29-.6.36-1.87-.1-4.1.24-5.93.03-1.6-.18-1.59-2.64-.14-2.81,1.11-.13,2.48.06,3.63,0,.32-.02.66-.13,1.01-.07.56-.88,1.14-1.75,1.7-2.63.06-.1.19-.18.23-.25.1-.23,0-.7.14-1.09.38-1.11,1.33-2.23,1.74-3.36l-.68-.03c-.58.66-1.09,1.52-1.68,2.16-.18.2-.45.46-.71.52-1.22.28-2.14-.92-1.47-2.02.38-.63,1.71-2.17,2.25-2.74.41-.43.66-.64,1.29-.66.85-.02,2.68.2,3.57.32.79.11,2.46.97,2.63,1.82.04.22-.02.45.03.65.06.25.54.63.61.93Z"/>
    <path class="cls-3" d="M26.59,15.45c.1.08.11.41.05.53-.56,1.17-1.38,2.33-1.91,3.5-.17.37-.26.48-.07.87l3.88,3.86c.11.86-.1,1.75-.15,2.62-.03.54-.16,1.72-.07,2.19.1.54,1.17.64,1.35-.01.19-1.79.38-3.59.42-5.39-.29-.68-2.29-2.1-2.39-2.68-.02-.13-.01-.25.03-.37.31-.42,1.24-2.91,1.54-3.05.05-.02.1-.04.15-.02.34.05,1.15,1.46,1.46,1.76.25.25.46.28.77.1.45-.25,2.37-1.74,2.75-2.12.41-.41.2-1.08-.37-1.06-.52.02-1.62,1.39-2.19,1.65-.14.06-.24.1-.4.05-.12-.04-1.34-1.65-1.34-1.8,0-.34.17-.4-.09-.81-.78-1.25-4.19-1.05-5.5-1.27-.21.03-.34.2-.48.34-.8.81-1.46,1.92-2.26,2.74-.13.38-.02.83.41.89.51.07.97-.85,1.26-1.2.42-.49.87-.96,1.27-1.47.25-.16,1.71.02,1.86.15Z"/>
    <path class="cls-3" d="M24.15,21.2l-1.86,2.9-4.88.05c-.76.14-.71,1.27.05,1.35,1.77-.12,3.74.16,5.48,0,.47-.04.5-.28.74-.63.57-.83,1.03-1.8,1.6-2.64.02-.15-.7-.9-.84-.99-.1-.06-.19-.1-.3-.05Z"/>
    <path class="cls-5" d="M30.49,9.57c3.02-.29,3.44,4.37.46,4.64-3.24.29-3.44-4.35-.46-4.64ZM30.35,10.32c-1.29.22-1.66,2.07-.63,2.86,1.42,1.09,3.4-.77,2.25-2.25-.41-.53-.96-.72-1.62-.61Z"/>
    <path class="cls-4" d="M26.59,15.45c-.15-.13-1.61-.3-1.86-.15-.41.5-.86.97-1.27,1.47-.29.35-.75,1.26-1.26,1.2-.44-.06-.55-.5-.41-.89.8-.83,1.46-1.94,2.26-2.74.14-.14.27-.31.48-.34,1.31.22,4.72.03,5.5,1.27.26.41.08.48.09.81,0,.15,1.22,1.76,1.34,1.8.16.05.26.01.4-.05.57-.25,1.68-1.63,2.19-1.65.57-.02.78.65.37,1.06-.37.37-2.3,1.87-2.75,2.12-.32.18-.52.14-.77-.1-.31-.3-1.12-1.71-1.46-1.76-.06-.02-.1,0-.15.02-.31.14-1.24,2.62-1.54,3.05-.04.12-.05.25-.03.37.1.57,2.11,2,2.39,2.68-.05,1.8-.23,3.6-.42,5.39-.18.65-1.25.55-1.35.01-.09-.47.03-1.65.07-2.19.06-.87.27-1.75.15-2.62l-3.88-3.86c-.19-.4-.1-.51.07-.87.53-1.17,1.35-2.33,1.91-3.5.06-.12.05-.45-.05-.53Z"/>
    <path class="cls-4" d="M24.15,21.2c.11-.05.2,0,.3.05.14.09.85.84.84.99-.57.84-1.03,1.81-1.6,2.64-.24.35-.27.58-.74.63-1.74.16-3.72-.13-5.48,0-.76-.09-.81-1.22-.05-1.35l4.88-.05,1.86-2.9Z"/>
    <path class="cls-4" d="M30.35,10.32c.66-.11,1.21.08,1.62.61,1.14,1.48-.83,3.35-2.25,2.25-1.03-.79-.66-2.64.63-2.86Z"/>
  </g>
  <g>
    <path class="cls-5" d="M36.48,18.3c.06.04.13,0,.2-.03.5-.24,1.13-1.05,1.68-1.34.44-.23.8-.27,1.25-.01.8.45.96,1.46.3,2.1-.54.53-1.66,1.33-2.3,1.81-.5.37-.88.78-1.57.68s-1.15-1.09-1.58-1.57c-.08.04-.72,1.4-.8,1.6s-.25.48-.16.66l2.09,2.16c.1.14.18.32.2.49.05.4-.04,1.13-.06,1.57-.07,1.16-.14,2.93-.36,4.02-.29,1.48-2.66,1.35-2.85-.06-.15-1.1.22-2.8.27-3.97,0-.2.01-.4-.01-.6l-1.87-1.83c-.09-.02-.11.05-.16.11-.63.86-1.2,2.3-1.87,3.06-.16.18-.38.29-.6.36-1.87-.1-4.1.24-5.93.03-1.6-.18-1.59-2.64-.14-2.81,1.11-.13,2.48.06,3.63,0,.32-.02.66-.13,1.01-.07.56-.88,1.14-1.75,1.7-2.63.06-.1.19-.18.23-.25.1-.23,0-.7.14-1.09.38-1.11,1.33-2.23,1.74-3.36l-.68-.03c-.58.66-1.09,1.52-1.68,2.16-.18.2-.45.46-.71.52-1.22.28-2.14-.92-1.47-2.02.38-.63,1.71-2.17,2.25-2.74.41-.43.66-.64,1.29-.66.85-.02,2.68.2,3.57.32.79.11,2.46.97,2.63,1.82.04.22-.02.45.03.65.06.25.54.63.61.93Z"/>
    <path class="cls-3" d="M31.53,16.75c.1.08.11.41.05.53-.56,1.17-1.38,2.33-1.91,3.5-.17.37-.26.48-.07.87l3.88,3.86c.11.86-.1,1.75-.15,2.62-.03.54-.16,1.72-.07,2.19.1.54,1.17.64,1.35-.01.19-1.79.38-3.59.42-5.39-.29-.68-2.29-2.1-2.39-2.68-.02-.13-.01-.25.03-.37.31-.42,1.24-2.91,1.54-3.05.05-.02.1-.04.15-.02.34.05,1.15,1.46,1.46,1.76.25.25.46.28.77.1.45-.25,2.37-1.74,2.75-2.12.41-.41.2-1.08-.37-1.06-.52.02-1.62,1.39-2.19,1.65-.14.06-.24.1-.4.05-.12-.04-1.34-1.65-1.34-1.8,0-.34.17-.4-.09-.81-.78-1.25-4.19-1.05-5.5-1.27-.21.03-.34.2-.48.34-.8.81-1.46,1.92-2.26,2.74-.13.38-.02.83.41.89.51.07.97-.85,1.26-1.2.42-.49.87-.96,1.27-1.47.25-.16,1.71.02,1.86.15Z"/>
    <path class="cls-3" d="M29.09,22.5l-1.86,2.9-4.88.05c-.76.14-.71,1.27.05,1.35,1.77-.12,3.74.16,5.48,0,.47-.04.5-.28.74-.63.57-.83,1.03-1.8,1.6-2.64.02-.15-.7-.9-.84-.99-.1-.06-.19-.1-.3-.05Z"/>
    <path class="cls-5" d="M35.43,10.87c3.02-.29,3.44,4.37.46,4.64-3.24.29-3.44-4.35-.46-4.64ZM35.29,11.62c-1.29.22-1.66,2.07-.63,2.86,1.42,1.09,3.4-.77,2.25-2.25-.41-.53-.96-.72-1.62-.61Z"/>
    <path class="cls-1" d="M31.53,16.75c-.15-.13-1.61-.3-1.86-.15-.41.5-.86.97-1.27,1.47-.29.35-.75,1.26-1.26,1.2-.44-.06-.55-.5-.41-.89.8-.83,1.46-1.94,2.26-2.74.14-.14.27-.31.48-.34,1.31.22,4.72.03,5.5,1.27.26.41.08.48.09.81,0,.15,1.22,1.76,1.34,1.8.16.05.26.01.4-.05.57-.25,1.68-1.63,2.19-1.65.57-.02.78.65.37,1.06-.37.37-2.3,1.87-2.75,2.12-.32.18-.52.14-.77-.1-.31-.3-1.12-1.71-1.46-1.76-.06-.02-.1,0-.15.02-.31.14-1.24,2.62-1.54,3.05-.04.12-.05.25-.03.37.1.57,2.11,2,2.39,2.68-.05,1.8-.23,3.6-.42,5.39-.18.65-1.25.55-1.35.01-.09-.47.03-1.65.07-2.19.06-.87.27-1.75.15-2.62l-3.88-3.86c-.19-.4-.1-.51.07-.87.53-1.17,1.35-2.33,1.91-3.5.06-.12.05-.45-.05-.53Z"/>
    <path class="cls-1" d="M29.09,22.5c.11-.05.2,0,.3.05.14.09.85.84.84.99-.57.84-1.03,1.81-1.6,2.64-.24.35-.27.58-.74.63-1.74.16-3.72-.13-5.48,0-.76-.09-.81-1.22-.05-1.35l4.88-.05,1.86-2.9Z"/>
    <path class="cls-1" d="M35.29,11.62c.66-.11,1.21.08,1.62.61,1.14,1.48-.83,3.35-2.25,2.25-1.03-.79-.66-2.64.63-2.86Z"/>
  </g>
</svg>