<?xml version="1.0" encoding="UTF-8"?>
<svg id="Calque_1" data-name="Calque 1" xmlns="http://www.w3.org/2000/svg" viewBox="0 0 284.22 240.19">
  <defs>
    <style>
      .cls-1 {
        fill: #cd352c;
      }

      .cls-2 {
        fill: #e7463b;
      }

      .cls-3 {
        fill: #e84a3d;
      }

      .cls-4 {
        fill: #c72f25;
      }
    </style>
  </defs>
  <path class="cls-2" d="M58.12,97.1c5.24-12.41,23.32-19.56,36-18.99,1.47,1.28-6.63,6.66-8,6.99-.05.01.12-1.08-.52-1-2.48.29-3.72,2.61-3.48,5v1c-4.29-.42-8.27,13.94-8.9,17.6-3.8,22.24,5.41,96.47,42.6,75.6,8.36-4.69-3.25-5.46-3.7-11.2,7.8,1.18,14.59-3.68,17-11.01,4.65,1.06,15.33-.22,21,0,1.23.05,4.36-.35,4.89.11.19.17.62,3.29,1.65,4.85,3.06,4.63,9.05,6.83,14.46,6.04.86,2.94-6.95,6.75-6.98,7.49,11.21,10.72,26.18,8.54,34.82-4.16,11.68-17.19,20.83-80.65-.83-91.86-2.32-1.2-1.88.56-2.01.52-1.08-.27-8.62-4.59-7-5.99,14.08.78,29.87,4.85,36,18.99,11,25.41-11.53,58.28-4.49,79.99,2.11,6.52,6.75,10.21,13.49,11.02v-4.01c3.27,1.04,10.91.51,12.51-2.98.93-2.02.11-4.28.69-6.31,1.03-3.62,7.21-4.03,1.81-12.2-6.13-9.27-16.52-3.27-16.5,6.5-22.65-14.96,5.64-42.85,21.48-20.99,1.04-3.28.57-6.96,1.27-10.24.8-3.75,3.97-10.74,3.74-13.76,5.59-6.18,10.07-11.66,17.11-16.39.78-.52,9.09-6.46,7.87-2.14l-21.81,58.27c3.16,8.43-1.07,23.19-7.17,29.74-2,2.15-5.3,3.12-6.06,4.19-.29.41-3.45,8.04-3.93,9.32-67.99-11.63-138.1-12.29-206,0-3.3-8.88-4.48-7.99-9.86-13.64-3.7-3.88-8.04-14.48-8.2-19.86-.09-3.17,1.18-6.02.88-8.74-.55-5.09-8.5-24.37-10.82-30.77,5-1.51,5.28-9.5,9-13,.15.2,3.2,1.05,3.69,3.01h1.31c-.97,4.14,1.51,7.4,2.53,11.95.86,3.84,1.44,8.08,1.48,12.03,16.87-21.27,44.35,6.53,21,21,2.44-9.31-8.42-14.74-14.55-8.04-5.62,6.14-.8,8.21,1.09,12.99,1.39,3.53-.73,5.93,3.95,9.05,3.25,2.16,6.72,2.18,10.5,2.01l-1,2.98c25.14-6.01,10.22-37.84,7.27-54.76-1.92-11-3.71-25.73.73-36.23Z"/>
  <path class="cls-2" d="M153.12,68.1c.11.07.16,1.65.97,2.48,3.29,3.38,5.66,6.34,11.03,5.52.19,5.63-8.31,7.42-13,7-.91.77,4.63,9.74,5,10.99,3.9,13.51-.23,27.01-3.99,40,7.86-8.94,17.76-15,29.33-7.84,13.71,8.49,8.58,29.9-7.33,30.83,4.17-16.7-16.11-20.81-23-4.99-7.65.16-15.36-.22-23,0-2.45-16.11-26.84-11.56-20,4.99-7.26.87-15.16-6.35-16.02-13.46-2.2-18.21,17.79-26.13,31.51-15.52,2.35,1.82,3.43,4.28,5.49,5.99-1.04-6.98-4.34-13.38-4.97-20.51s-.08-12.88,1.98-19.48c.54-1.72,4.43-9.51,4-9.99-2.62-.1-5.03-.98-7.32-2.19-10.35-5.47-1.37-4.46,2.84-7.79,2.6-2.06,3.19-5.82,3.48-6.02.95-.65,22.03-.62,23,0Z"/>
  <path class="cls-4" d="M196.12,84.1c.13.03-.31-1.72,2.01-.52,21.66,11.21,12.51,74.67.83,91.86-8.63,12.71-23.61,14.89-34.82,4.16.03-.75,7.84-4.56,6.98-7.49-5.4.79-11.39-1.42-14.46-6.04-1.03-1.56-1.46-4.68-1.65-4.85-.53-.46-3.66-.06-4.89-.11.15-2.39,1.11-6.95,2-9,6.89-15.82,27.17-11.7,23,4.99,15.91-.93,21.04-22.34,7.33-30.83-11.57-7.16-21.47-1.1-29.33,7.84,3.76-12.99,7.89-26.49,3.99-40l14.5-3h30.5l-6-7Z"/>
  <path class="cls-4" d="M82.12,90.1c.38.04,1.5,1.05,3.38,1.07,13.97.13,28.05-1.1,41.62,2.93-2.06,6.61-2.6,12.48-1.98,19.48s3.93,13.53,4.97,20.51c-2.07-1.71-3.15-4.17-5.49-5.99-13.72-10.6-33.72-2.69-31.51,15.52.86,7.12,8.76,14.33,16.02,13.46-6.84-16.55,17.55-21.1,20-4.99-1,.03-2-.05-3,0-.14,2.97-.7,8.16,3,9.01-2.4,7.32-9.19,12.18-17,11.01.45,5.74,12.06,6.5,3.7,11.2-37.19,20.87-46.4-53.36-42.6-75.6.63-3.66,4.61-18.02,8.9-17.6Z"/>
  <path class="cls-2" d="M247.12,224.1c.53.85,1.65.95,2.34,3.14,1.73,5.5-1.16,11.57-6.93,12.86-54.13-9.09-110.23-10.51-164.9-4.98-9.8.99-26.47,5.39-34.99,5.06-6.11-.24-10.31-6.26-9.13-12.12.53-2.64,1.78-2.72,2.61-3.95,13.21-1.05,26.34-3.63,39.51-4.99,44.29-4.58,90.71-4.76,134.98,0,12.19,1.31,24.24,4.21,36.51,4.99Z"/>
  <path class="cls-3" d="M130.12,61.1c-4.26-11.55-19.05-5.67-16,6-11.8-.88-16.71-14.32-9.01-23.51,7-8.35,19.55-4.38,26,2.51-4.57-14.34-3.7-24.73,3.84-37.67.74-1.26,5.25-8.33,5.75-8.4,4.81-.76,13.45,17.46,14.18,21.81,1.48,8.78-.39,16.96-2.75,25.26,4.32-3.41,6.56-7.14,12.58-7.91,20.29-2.58,24.62,26.04,4.42,27.9,3.88-11.73-11.33-17.26-16-5.99-4.77-.73-17.93-.49-23,0Z"/>
  <path class="cls-4" d="M259.12,124.1c.23,3.02-2.95,10.01-3.74,13.76-.7,3.29-.23,6.96-1.27,10.24-15.84-21.85-44.13,6.03-21.48,20.99-.02-9.77,10.37-15.77,16.5-6.5,5.41,8.18-.77,8.59-1.81,12.2-.58,2.03.24,4.29-.69,6.31-1.61,3.49-9.24,4.02-12.51,2.98v4.01c-6.74-.81-11.38-4.5-13.5-11.02-7.04-21.71,15.49-54.59,4.49-79.99,9.51-.09,33.35,18.47,34,27Z"/>
  <path class="cls-4" d="M58.12,97.1c-4.44,10.5-2.65,25.23-.73,36.23,2.95,16.92,17.87,48.75-7.27,54.76l1-2.98c-3.78.17-7.25.16-10.5-2.01-4.68-3.12-2.56-5.51-3.95-9.05-1.89-4.78-6.7-6.86-1.09-12.99,6.13-6.7,16.99-1.27,14.55,8.04,23.35-14.47-4.13-42.27-21-21-.03-3.95-.61-8.19-1.48-12.03-1.02-4.55-3.51-7.82-2.53-11.97,2.9-12.4,21.2-23.95,33-27Z"/>
  <path class="cls-1" d="M245.12,207.1c-.59,1.6.5,6.23-2.49,6.09-66.19-11.47-134.8-11.24-201.01,0-3.02.08-1.89-4.48-2.49-6.1,67.9-12.29,138.01-11.63,206,0Z"/>
  <path class="cls-1" d="M247.12,224.1c-12.27-.78-24.32-3.68-36.51-4.99-44.28-4.76-90.7-4.57-134.98,0-13.17,1.36-26.3,3.94-39.51,4.99,2.48-3.73,1.59-4.03,6.96-5.54,12.29-3.47,33.38-5.28,46.55-6.45,44.05-3.93,103.49-3.74,146.72,5.27,6.92,1.44,7.26,1.15,10.77,6.73Z"/>
  <path class="cls-3" d="M20.12,121.1c-3.72,3.5-4,11.49-9,13-1.46-4.02-12.41-29.36-10.99-31,6.95,3.19,14.05,8.77,19.05,14.49,1.1,1.26.74,3.22.95,3.51Z"/>
  <path class="cls-1" d="M130.12,61.1c5.07-.49,18.23-.73,23,0s3.69,5.27,0,7c-.97-.62-22.05-.65-23,0-3.78-1.45-4.15-6.59,0-7Z"/>
  <path class="cls-4" d="M86.12,85.1l-4,4c-.23-2.39,1-4.71,3.48-5,.64-.07.46,1.02.52,1Z"/>
  <path class="cls-1" d="M129.12,152.1c7.64-.22,15.35.16,23,0-.89,2.05-1.85,6.61-2,9-5.67-.22-16.35,1.06-21,0-3.7-.85-3.14-6.04-3-9.01,1-.05,2,.03,3,0Z"/>
</svg>