<?xml version="1.0" encoding="UTF-8"?>
<svg id="Calque_1" xmlns="http://www.w3.org/2000/svg" version="1.1" viewBox="0 0 18.9 22">
  <!-- Generator: Adobe Illustrator 29.0.1, SVG Export Plug-In . SVG Version: 2.1.0 Build 192)  -->
  <defs>
    <style>
      .st0 {
        fill-rule: evenodd;
      }
    </style>
  </defs>
  <path class="st0" d="M12.3,0c.9,0,1.7.3,2.3.9.6.6,1,1.4,1,2.2s-.3,1.6-1,2.2c-.6.6-1.4.9-2.3.9s-1.7-.3-2.3-.9c-.6-.6-1-1.4-1-2.2s.3-1.6,1-2.2C10.6.3,11.5,0,12.3,0ZM7.3,8.9l.8.4-2.8,5.6c-.1.2-.4.4-.6.3l-2.8-.7c-.8-.2-1.7.3-1.9,1.1-.2.8.3,1.6,1.1,1.8l2.8.7c.3,0,.6,0,.9,0,1.6,0,2.9-.9,3.4-2.3l.2-.6,2.5,1.6c0,0,.1,0,.1,0,0,0,0,0,0,.1l1.4,4c.3.6.8.9,1.4.9s.4,0,.6,0c.8-.4,1.1-1.2.8-2l-1.4-4c-.3-.6-.7-1.1-1.3-1.5l-3-1.9,1.1-2,1.4.7c1.3.6,3,.4,4.1-.7l1.9-1.8c.6-.6.6-1.5,0-2.1-.6-.6-1.6-.6-2.2,0l-1.9,1.8c-.2.2-.4.2-.6,0l-2.8-1.4-2.3-1.1c-.9-.4-1.9-.5-2.8-.2-.9.3-1.7,1-2.1,1.8l-1.4,2.6c-.3.7,0,1.6.7,2,.8.4,1.6.1,2.1-.6l1.4-2.6c.2-.2.5-.3.7-.2Z"/>
</svg>